# xmcd CD database file generated by OrangeCD 6.2
#
# Track frame offsets:
#	150
#	11417
#	23257
#	37455
#	49380
#	63105
#	76677
#	93552
#	106830
#	116575
#
# Disc length: 1738 seconds
#
# Revision: 4
# Processed by: cddbd v1.5.2PL0 Copyright (c) Steve Scherf et al.
# Submitted via: OrangeCD 6.2
#
DISCID=7106c80a
DTITLE=Conway Twitty - Super Hits
DYEAR=1994
DGENRE=Country
TTITLE0=Hello Darlin'
TTITLE1=Linda On My Mind
TTITLE2=You've Never Been This Far Before
TTITLE3=She Needs Someone to Hold Her (When She Cries)
TTITLE4=Baby's Gone
TTITLE5=The Games that Daddies Play 
TTITLE6=Don't Cry Joni
TTITLE7=After All the Good is Gone
TTITLE8=I'll Try
TTITLE9=Fifteen Years Ago
EXTD=
EXTT0=
EXTT1=
EXTT2=
EXTT3=
EXTT4=
EXTT5=
EXTT6=
EXTT7=
EXTT8=
EXTT9=
PLAYORDER=
